<?xml version="1.0" encoding="UTF-8" standalone="no"?>
<!-- Created with Inkscape (http://www.inkscape.org/) -->

<svg
   id="svg9404"
   sodipodi:docname="lasvegas_logo.svg"
   viewBox="0 0 364.04 460.5"
   version="1.1"
   inkscape:version="1.3 (0e150ed6c4, 2023-07-21)"
   xmlns:inkscape="http://www.inkscape.org/namespaces/inkscape"
   xmlns:sodipodi="http://sodipodi.sourceforge.net/DTD/sodipodi-0.dtd"
   xmlns:xlink="http://www.w3.org/1999/xlink"
   xmlns="http://www.w3.org/2000/svg"
   xmlns:svg="http://www.w3.org/2000/svg"
   xmlns:rdf="http://www.w3.org/1999/02/22-rdf-syntax-ns#"
   xmlns:cc="http://creativecommons.org/ns#"
   xmlns:dc="http://purl.org/dc/elements/1.1/">
  <defs
     id="defs9406">
    <rect
       x="394.33879"
       y="62.750728"
       width="125.50146"
       height="317.71685"
       id="rect8" />
    <filter
       id="filter6073"
       color-interpolation-filters="sRGB"
       inkscape:collect="always"
       x="-0.041465262"
       y="-0.03180755"
       width="1.0829305"
       height="1.0636151">
      <feGaussianBlur
         id="feGaussianBlur6075"
         stdDeviation="5.4888791"
         inkscape:collect="always" />
    </filter>
    <radialGradient
       id="radialGradient7755"
       xlink:href="#linearGradient5701"
       gradientUnits="userSpaceOnUse"
       cy="1142.2"
       cx="-3.8167"
       gradientTransform="matrix(1.2844,-0.031901,0.026499,1.0669,207.8,-862)"
       r="148.27"
       inkscape:collect="always" />
    <linearGradient
       id="linearGradient5701"
       inkscape:collect="always">
      <stop
         id="stop5705"
         style="stop-color:white"
         offset="0" />
      <stop
         id="stop5703"
         style="stop-color:#ccc"
         offset="1" />
    </linearGradient>
    <linearGradient
       id="linearGradient7752"
       y2="1133.5"
       spreadMethod="reflect"
       gradientUnits="userSpaceOnUse"
       x2="-10.238"
       gradientTransform="translate(236.5,-781.8)"
       y1="1205.3"
       x1="-10.23"
       inkscape:collect="always">
      <stop
         id="stop7024"
         style="stop-color:#ec8728"
         offset="0" />
      <stop
         id="stop7026"
         style="stop-color:#fee006"
         offset="1" />
    </linearGradient>
    <filter
       id="filter7018"
       width="1.0272505"
       y="-0.1006043"
       x="-0.013625234"
       height="1.2012086"
       color-interpolation-filters="sRGB"
       inkscape:collect="always">
      <feGaussianBlur
         id="feGaussianBlur7020"
         stdDeviation="1.536563"
         inkscape:collect="always" />
    </filter>
    <radialGradient
       id="radialGradient7739"
       xlink:href="#linearGradient5701"
       gradientUnits="userSpaceOnUse"
       cy="1224.7"
       cx="-738.84"
       gradientTransform="matrix(1.3357,0,0,1.3357,1104.1,-1340.7)"
       r="14.844"
       inkscape:collect="always" />
    <radialGradient
       id="radialGradient7736"
       xlink:href="#linearGradient5701"
       gradientUnits="userSpaceOnUse"
       cy="1224.7"
       cx="-738.84"
       gradientTransform="matrix(1.3357,0,0,1.3357,1143.1,-1340.7)"
       r="14.844"
       inkscape:collect="always" />
    <radialGradient
       id="radialGradient7733"
       xlink:href="#linearGradient5701"
       gradientUnits="userSpaceOnUse"
       cy="1224.7"
       cx="-738.84"
       gradientTransform="matrix(1.3357,0,0,1.3357,1182.1,-1340.7)"
       r="14.844"
       inkscape:collect="always" />
    <radialGradient
       id="radialGradient7730"
       xlink:href="#linearGradient5701"
       gradientUnits="userSpaceOnUse"
       cy="1224.7"
       cx="-738.84"
       gradientTransform="matrix(1.3357,0,0,1.3357,1221.1,-1340.7)"
       r="14.844"
       inkscape:collect="always" />
    <radialGradient
       id="radialGradient7727"
       xlink:href="#linearGradient5701"
       gradientUnits="userSpaceOnUse"
       cy="1224.7"
       cx="-738.84"
       gradientTransform="matrix(1.3357,0,0,1.3357,1260.1,-1340.7)"
       r="14.844"
       inkscape:collect="always" />
    <radialGradient
       id="radialGradient7724"
       xlink:href="#linearGradient5701"
       gradientUnits="userSpaceOnUse"
       cy="1224.7"
       cx="-738.84"
       gradientTransform="matrix(1.3357,0,0,1.3357,1299.1,-1340.7)"
       r="14.844"
       inkscape:collect="always" />
    <radialGradient
       id="radialGradient7721"
       xlink:href="#linearGradient5701"
       gradientUnits="userSpaceOnUse"
       cy="1224.7"
       cx="-738.84"
       gradientTransform="matrix(1.3357,0,0,1.3357,1338.1,-1340.7)"
       r="14.844"
       inkscape:collect="always" />
  </defs>
  <sodipodi:namedview
     id="base"
     bordercolor="#666666"
     inkscape:pageshadow="2"
     inkscape:window-y="-8"
     fit-margin-left="10"
     pagecolor="#ffffff"
     fit-margin-top="10"
     inkscape:window-maximized="1"
     inkscape:zoom="1.0705078"
     inkscape:window-x="-8"
     inkscape:window-height="1017"
     showgrid="false"
     borderopacity="1.0"
     inkscape:current-layer="layer1"
     inkscape:cx="370.38497"
     inkscape:cy="217.18665"
     fit-margin-right="10"
     fit-margin-bottom="10"
     inkscape:window-width="2560"
     inkscape:pageopacity="0.0"
     inkscape:document-units="px"
     inkscape:showpageshadow="2"
     inkscape:pagecheckerboard="0"
     inkscape:deskcolor="#d1d1d1" />
  <g
     id="layer1"
     inkscape:label="Ebene 1"
     inkscape:groupmode="layer"
     transform="translate(-49.04 -163.43)">
    <path
       id="path5905"
       style="color:#000000;text-indent:0;text-transform:none;opacity:0.5;fill:#000000;filter:url(#filter6073)"
       inkscape:connector-curvature="0"
       d="m 157,186.6 -0.9375,14.344 -27.375,-0.75 -5.1875,-0.1563 0.062,5.1875 0.1875,26.625 -12.75,0.875 12.781,0.8437 0.3437,44.625 c -2.1268,-0.8633 -4.4696,-1.375 -6.9062,-1.375 -10.122,0 -18.312,8.2218 -18.312,18.344 0,5.3092 2.2675,10.09 5.875,13.438 -0.6051,1.2122 -0.7401,2.6524 -0.1875,4 0.3397,0.8282 0.8958,1.4931 1.5625,2 -2.7727,1.1336 -5.5423,2.2684 -8.3125,3.4062 0.1134,-0.8222 0.026,-1.6737 -0.3125,-2.5 -0.7625,-1.8592 -2.5471,-3.0107 -4.4375,-3.0312 -0.6302,-0.01 -1.2553,0.1208 -1.875,0.375 -2.479,1.0163 -3.6728,3.8337 -2.6563,6.3124 0.5848,1.4263 1.7781,2.382 3.1563,2.7813 -0.6956,0.5391 -1.3689,1.1075 -2.0313,1.6875 -0.057,0.049 -0.1313,0.075 -0.1875,0.125 -0.7259,0.5181 -1.443,1.0451 -2.125,1.5938 l -0.1562,0.1562 -0.1563,0.1875 c -0.5779,0.7421 -1.0977,1.5091 -1.5937,2.3125 -0.7771,-1.82 -2.5382,-2.9169 -4.4063,-2.9375 -0.6301,-0.01 -1.2553,0.09 -1.875,0.3437 -2.4789,1.0169 -3.6728,3.8649 -2.6562,6.3438 0.8934,2.1787 3.1831,3.3724 5.4062,2.9375 -0.5739,1.7741 -0.9191,3.659 -0.9687,5.6563 h -0.031 c -0.01,0.073 0.01,0.1453 0,0.2187 -0.017,0.1575 -0.017,0.3114 -0.031,0.4687 -0.9083,-1.2298 -2.3376,-1.9521 -3.8437,-1.9687 -0.6301,-0.01 -1.2553,0.09 -1.875,0.3437 -2.4789,1.0169 -3.6728,3.8649 -2.6563,6.3438 1.0166,2.4789 3.8336,3.673 6.3125,2.6562 0.8791,-0.3603 1.5792,-0.9645 2.0938,-1.6874 0.2897,2.6084 0.9913,5.1754 2.0312,7.5624 -0.043,-0.019 -0.081,-0.044 -0.125,-0.062 -0.6197,-0.2545 -1.2448,-0.3507 -1.875,-0.3438 -1.8904,0.021 -3.6751,1.1408 -4.4375,3 -1.0165,2.4789 0.1774,5.327 2.6563,6.3438 2.4789,1.0163 5.296,-0.1774 6.3125,-2.6563 0.1192,-0.2906 0.2213,-0.5778 0.2812,-0.875 1.0461,1.4071 2.3324,2.6041 3.9688,3.375 0.061,0.029 0.095,0.098 0.1562,0.125 0.1217,0.054 0.2183,0.1381 0.3438,0.1875 0.5895,0.4128 1.2031,0.8184 1.8437,1.1875 -1.5278,0.3196 -2.8948,1.3541 -3.5312,2.9063 -1.0165,2.4786 0.1773,5.2959 2.6562,6.3124 2.479,1.0169 5.296,-0.1773 6.3125,-2.6562 0.5526,-1.3475 0.4404,-2.7962 -0.1562,-4 3.1769,1.4961 6.3648,2.9617 9.5625,4.4062 -1.024,0.5015 -1.8766,1.361 -2.3438,2.5 -1.0165,2.4792 0.1774,5.3273 2.6563,6.3438 2.4789,1.0165 5.3272,-0.1775 6.3437,-2.6562 0.4222,-1.0298 0.4304,-2.1259 0.1563,-3.125 2.8561,1.3104 5.7252,2.5953 8.5937,3.875 -0.744,0.5126 -1.3497,1.2249 -1.7187,2.125 -1.0165,2.4786 0.1773,5.3272 2.6562,6.3437 0.5396,0.2212 1.1044,0.3224 1.6563,0.3437 l 1.5937,212 10,-0.062 -1.625,-215.25 c 1.0536,0.4555 2.1017,0.9243 3.1563,1.375 -0.58,0.4856 -1.0675,1.0938 -1.375,1.8437 -1.0165,2.4789 0.1461,5.296 2.625,6.3125 2.4789,1.0165 5.3272,-0.1461 6.3437,-2.625 0.2922,-0.7124 0.3948,-1.4663 0.3438,-2.1875 2.6528,1.1142 5.3109,2.2118 7.9687,3.3125 -0.525,0.4703 -0.964,1.0528 -1.25,1.75 -1.0165,2.4789 0.1774,5.327 2.6563,6.3438 2.4789,1.0163 5.296,-0.1774 6.3125,-2.6563 0.2838,-0.6921 0.3844,-1.3956 0.3437,-2.0937 2.6484,1.0847 5.2869,2.1722 7.9375,3.25 -0.5106,0.471 -0.9386,1.0668 -1.2187,1.75 -1.0165,2.4786 0.1773,5.2959 2.6562,6.3124 2.479,1.0169 5.296,-0.146 6.3125,-2.625 0.2882,-0.7024 0.3861,-1.4444 0.3438,-2.1562 0.4894,0.1981 0.9792,0.3956 1.4687,0.5938 l 0.75,198.28 10,-0.031 -0.7187,-187.12 c 1.8118,-0.1051 3.486,-1.2134 4.2187,-3 0.2964,-0.7228 0.4002,-1.488 0.3438,-2.2188 2.6794,1.0868 5.355,2.1892 8.0312,3.2812 -0.5643,0.4878 -1.0423,1.1087 -1.3437,1.8438 -1.0165,2.4789 0.1773,5.296 2.6562,6.3125 2.479,1.0165 5.3273,-0.1773 6.3438,-2.6563 0.3005,-0.7325 0.4056,-1.4821 0.3437,-2.2187 2.6819,1.1048 5.3555,2.2273 8.0313,3.3437 -0.5489,0.4776 -1.0172,1.0611 -1.3125,1.7813 -1.0165,2.4789 0.1461,5.3272 2.625,6.3437 2.4789,1.0169 5.3272,-0.1773 6.3437,-2.6562 0.2839,-0.6921 0.3845,-1.4232 0.3438,-2.125 1.0608,0.4498 2.128,0.8911 3.1875,1.3438 l 0.7812,0.3124 0.7813,-0.3124 c 0.031,-0.013 0.063,-0.019 0.094,-0.031 0.027,0.011 0.068,0.021 0.094,0.031 l 0.7812,0.3124 0.7813,-0.3124 c 1.1719,-0.5007 2.3577,-0.9716 3.5312,-1.4688 -0.063,0.7417 0.012,1.5159 0.3125,2.25 1.0166,2.4789 3.8336,3.673 6.3125,2.6562 2.479,-1.0163 3.6728,-3.8648 2.6563,-6.3437 -0.3136,-0.7648 -0.8105,-1.3854 -1.4063,-1.875 2.7189,-1.1337 5.4311,-2.2847 8.1563,-3.4063 -0.092,0.7849 -0.01,1.5904 0.3125,2.375 1.0165,2.4792 3.8648,3.6728 6.3438,2.6563 2.4789,-1.0165 3.6415,-3.8336 2.625,-6.3125 -0.3197,-0.7796 -0.8259,-1.438 -1.4375,-1.9375 2.7245,-1.1108 5.4595,-2.2072 8.1875,-3.3125 -0.08,0.7702 -0.001,1.5792 0.3125,2.3438 1.0165,2.4786 3.8648,3.6727 6.3437,2.6562 2.4789,-1.0165 3.6728,-3.8648 2.6563,-6.3438 -0.3103,-0.7564 -0.7879,-1.3874 -1.375,-1.875 2.6948,-1.0889 5.3984,-2.1597 8.0937,-3.25 -0.063,0.7418 0.012,1.5161 0.3125,2.25 1.0165,2.4792 3.8648,3.6418 6.3438,2.625 2.4789,-1.0163 3.6727,-3.8337 2.6562,-6.3124 -0.2953,-0.7204 -0.7636,-1.3293 -1.3125,-1.8126 2.6785,-1.0878 5.3551,-2.1858 8.0313,-3.2812 -0.053,0.7275 0.047,1.4645 0.3437,2.1875 1.0165,2.4789 3.8336,3.6728 6.3125,2.6563 2.4789,-1.0169 3.6728,-3.8649 2.6563,-6.3438 -0.2981,-0.7269 -0.7567,-1.3331 -1.3125,-1.8125 2.6939,-1.1149 5.3738,-2.246 8.0625,-3.375 -0.074,0.7607 0,1.5581 0.3125,2.3125 1.0165,2.4789 3.8335,3.6415 6.3125,2.625 2.4789,-1.0165 3.6727,-3.8336 2.6562,-6.3125 -0.3258,-0.7945 -0.8411,-1.4411 -1.4687,-1.9375 2.7479,-1.1739 5.5105,-2.3358 8.25,-3.5312 -0.132,0.8405 -0.066,1.7154 0.2812,2.5624 1.0165,2.4792 3.8648,3.6728 6.3438,2.6563 2.4789,-1.0165 3.6415,-3.865 2.625,-6.3437 -0.3752,-0.9149 -0.9892,-1.6423 -1.75,-2.1563 2.9081,-1.2975 5.7925,-2.6391 8.6875,-3.9687 -0.3132,1.0327 -0.315,2.177 0.125,3.25 1.0165,2.4786 3.8648,3.6727 6.3437,2.6562 2.4789,-1.0165 3.6728,-3.8648 2.6563,-6.3438 -0.4899,-1.1944 -1.4091,-2.0738 -2.5,-2.5624 3.2805,-1.4882 6.5562,-2.989 9.8125,-4.5313 -0.6917,1.2389 -0.8627,2.7697 -0.2813,4.1875 1.0165,2.4789 3.8648,3.673 6.3438,2.6562 2.4789,-1.0163 3.6727,-3.8337 2.6562,-6.3124 -0.6671,-1.627 -2.1316,-2.7091 -3.75,-2.9688 0.6048,-0.3538 1.1903,-0.733 1.75,-1.125 0.1119,-0.044 0.2083,-0.1028 0.3125,-0.1562 -0.023,0.01 -0.019,0.01 0.031,-0.031 0.029,-0.016 0.062,-0.016 0.125,-0.062 v -0.031 c 1.6411,-0.7638 2.9453,-1.9417 4,-3.3438 0.059,0.2746 0.1398,0.5438 0.25,0.8125 1.0165,2.4789 3.8336,3.6728 6.3125,2.6563 2.4789,-1.0169 3.6728,-3.8649 2.6563,-6.3438 -0.7624,-1.8592 -2.5471,-2.9792 -4.4375,-3 -0.6302,-0.01 -1.2553,0.09 -1.875,0.3438 -0.022,0.01 -0.041,0.022 -0.062,0.031 1.0272,-2.3697 1.7097,-4.9112 2,-7.5 0.5127,0.707 1.1977,1.3016 2.0625,1.6562 2.4789,1.0169 5.2959,-0.1773 6.3125,-2.6562 1.0165,-2.4789 -0.1774,-5.327 -2.6563,-6.3438 -0.6197,-0.2538 -1.2449,-0.3506 -1.875,-0.3437 -1.4918,0.016 -2.9028,0.7289 -3.8125,1.9375 -0.014,-0.1469 -0.015,-0.2906 -0.031,-0.4375 h 0.031 c 0,-0.075 -0.029,-0.1438 -0.031,-0.2187 -0.05,-2.0016 -0.4191,-3.8814 -1,-5.6563 2.2138,0.4187 4.4855,-0.7685 5.375,-2.9375 1.0165,-2.4789 -0.1773,-5.327 -2.6562,-6.3438 -0.6198,-0.2538 -1.2449,-0.3506 -1.875,-0.3437 -1.8682,0.021 -3.6292,1.1175 -4.4063,2.9375 -0.4919,-0.799 -0.9879,-1.5747 -1.5625,-2.3125 l -0.125,-0.1875 -0.1875,-0.1562 c -0.6577,-0.5292 -1.3404,-1.0444 -2.0625,-1.5626 -0.05,-0.044 -0.1059,-0.081 -0.1562,-0.125 -0.6523,-0.5733 -1.3442,-1.0944 -2.0313,-1.625 1.4761,-0.3498 2.7574,-1.3688 3.375,-2.875 1.0165,-2.4786 -0.1773,-5.2959 -2.6562,-6.3124 -0.6198,-0.2545 -1.2762,-0.3823 -1.9063,-0.375 -1.8904,0.02 -3.6751,1.172 -4.4375,3.0312 -0.3515,0.8572 -0.4201,1.744 -0.2812,2.5938 l -0.125,-0.031 c -2.7665,-1.1364 -5.5436,-2.2426 -8.3125,-3.375 0.7229,-0.5146 1.327,-1.2148 1.6875,-2.0937 0.054,-0.1333 0.083,-0.2713 0.125,-0.4063 6.8188,-2.6699 11.656,-9.2662 11.656,-17.031 0,-10.122 -8.2218,-18.344 -18.344,-18.344 -10.1222,0 -18.312,8.2218 -18.312,18.344 0,1.9674 0.3012,3.8487 0.875,5.625 -0.427,0.4378 -0.7858,0.9638 -1.0313,1.5626 -0.3687,0.899 -0.4187,1.8326 -0.25,2.7187 -1.3122,-0.5298 -2.6229,-1.0667 -3.9375,-1.5937 1.2711,-2.4944 2,-5.321 2,-8.3126 0,-10.122 -8.2218,-18.344 -18.344,-18.344 -8.3145,0 -15.32,5.5688 -17.562,13.156 -1.085,-0.4233 -2.1668,-0.8543 -3.25,-1.2813 0.9616,-0.5151 1.774,-1.3216 2.2187,-2.4063 1.0165,-2.4786 -0.1773,-5.2959 -2.6562,-6.3124 -0.6198,-0.2545 -1.2762,-0.3823 -1.9063,-0.375 -1.4405,0.016 -2.8066,0.6792 -3.7187,1.8124 -2.1094,-1.8628 -4.6335,-3.2317 -7.4375,-3.9687 -0.1591,-1.7511 -1.2341,-3.3512 -2.9688,-4.0625 -0.6197,-0.2541 -1.2761,-0.3504 -1.9062,-0.3438 -1.8905,0.021 -3.6751,1.1409 -4.4375,3 -0.2017,0.4918 -0.2825,0.9975 -0.3125,1.5 -0.9301,0.2607 -1.8236,0.6026 -2.6875,1 -2.2825,-0.9036 -4.5615,-1.817 -6.8438,-2.7187 1.2199,-0.4581 2.2465,-1.3835 2.7813,-2.6875 1.0165,-2.4789 -0.1461,-5.296 -2.625,-6.3125 -0.6198,-0.2541 -1.2762,-0.3819 -1.9063,-0.375 -1.8904,0.021 -3.6751,1.1719 -4.4375,3.0313 -0.5429,1.3238 -0.421,2.7465 0.1563,3.9374 -3.4512,-1.3551 -6.9184,-2.6893 -10.375,-4.0312 1.378,-0.3954 2.5686,-1.3795 3.1563,-2.8125 1.0165,-2.4789 -0.1773,-5.3272 -2.6563,-6.3437 -0.6197,-0.2545 -1.2448,-0.3507 -1.875,-0.3438 -1.8904,0.021 -3.675,1.1408 -4.4375,3 -0.6161,1.5024 -0.3955,3.1226 0.4063,4.4062 -1.5957,-0.6153 -3.1842,-1.2315 -4.7813,-1.8437 l -0.7187,-0.2813 -0.4063,0.1563 -0.375,-0.1563 -0.7187,0.2813 c -1.4798,0.5673 -2.9583,1.1487 -4.4375,1.7187 0.7399,-1.2645 0.9406,-2.8257 0.3437,-4.2812 -0.7624,-1.8592 -2.547,-2.9792 -4.4375,-3 -0.6301,-0.01 -1.2865,0.09 -1.9062,0.3438 -2.4789,1.0163 -3.6415,3.8648 -2.625,6.3437 0.5692,1.388 1.7085,2.3302 3.0312,2.75 -3.384,1.3124 -6.7763,2.6122 -10.156,3.9375 0.5072,-1.1556 0.5804,-2.5185 0.062,-3.7812 -0.7624,-1.8595 -2.5471,-3.0105 -4.4375,-3.0313 -0.6301,-0.01 -1.2865,0.1209 -1.9063,0.375 -2.4789,1.0165 -3.6727,3.8336 -2.6562,6.3125 0.5083,1.2395 1.476,2.1437 2.625,2.625 -1.3269,0.5236 -2.6455,1.064 -3.9688,1.5938 -1.3601,-0.322 -2.7914,-0.5313 -4.25,-0.5313 -0.3897,0 -0.7725,0.039 -1.1562,0.062 -0.059,-0.2833 -0.1676,-0.5666 -0.2813,-0.8438 -0.7624,-1.8588 -2.547,-2.9792 -4.4375,-3 -0.1018,-0.001 -0.2095,0.027 -0.3125,0.031 l -0.1562,-39.469 14.281,-1 -14.281,-0.9376 -0.094,-25 -0.031,-4.8438 -4.8438,-0.125 -25.906,-0.7187 -1,-14.375 z m -23.406,23.75 21.812,0.5938 -1.125,17.094 -20.656,-12.812 -0.031,-4.875 z m 25.125,0.6875 12.844,0.3438 -11.812,14.25 -1.0312,-14.594 z m 14.469,0.375 5.625,0.1563 0.062,19.438 -17.156,-1.125 11.469,-18.469 z m -39.562,5.0313 16.469,13.594 -16.344,1.125 z m 0.1563,17.781 18.656,1.25 -16.469,26.5 18.469,-22.313 2.5625,37.219 c -0.2611,-0.011 -0.5174,-0.062 -0.7812,-0.062 -9.7213,0 -17.636,7.5902 -18.25,17.156 -1.5109,1.3238 -2.089,3.4992 -1.2813,5.4687 0.3599,0.8777 0.9398,1.5794 1.6563,2.0937 -1.3565,0.545 -2.7064,1.1082 -4.0625,1.6563 v -1.375 c 0.8096,-2.0689 1.2812,-4.3005 1.2812,-6.6563 0,-2.471 -0.4884,-4.8176 -1.375,-6.9687 l -0.4062,-53.969 z m 45.125,0.062 0.031,13.313 -14.844,-12.281 14.812,-1.0313 z m -19.031,3.0313 19.094,11.844 0.125,36.219 c -0.4051,0.1592 -0.8138,0.3098 -1.2188,0.4688 0.3065,-1.033 0.2837,-2.1773 -0.1562,-3.25 -0.7625,-1.8595 -2.5471,-2.9795 -4.4375,-3 -0.6302,-0.01 -1.2553,0.1208 -1.875,0.375 -1.0469,0.4291 -1.825,1.1832 -2.3438,2.0937 -3.0762,-3.0182 -7.2263,-4.9319 -11.812,-5.1875 l 2.625,-39.562 z" />
    <path
       id="path5819"
       style="color:#000000;text-indent:0;text-transform:none;fill:#0f4cb9"
       inkscape:connector-curvature="0"
       d="m 123.5,200 0.062,5.1875 2.9688,394.06 10,-0.062 -2.9375,-388.88 45.219,1.2188 1.4688,389.19 10,-0.031 -1.5,-394.06 -0.031,-4.8437 -4.8437,-0.125 -55.219,-1.5 -5.1875,-0.1563 z" />
    <g
       id="g8">
      <path
         id="path4710"
         style="fill:url(#radialGradient7755)"
         inkscape:connector-curvature="0"
         d="m 230.7,267.3 c -14.518,5.5653 -29.006,11.246 -43.438,17.031 -29.71,11.599 -59.316,23.459 -88.781,35.562 -2.6543,1.4959 -5.2731,3.2879 -7.5937,5.3437 -0.7511,0.5293 -1.473,1.0815 -2.1875,1.6563 -0.6029,0.7741 -1.1556,1.5712 -1.6563,2.4063 -2.4216,3.1963 -4.0034,6.941 -4.0625,11.281 -0.1651,1.4043 -0.1885,2.8007 -0.125,4.2188 -0.01,0.2805 -0.027,0.5637 -0.031,0.8437 0.043,0.1897 0.081,0.3987 0.125,0.5937 0.2687,2.6795 0.9789,5.3122 2.0937,7.7188 0.043,0.093 0.081,0.1888 0.125,0.2812 1.253,3.3002 3.0582,6.1406 5.875,7.25 0.034,0.013 0.06,0.05 0.094,0.063 0.8877,0.6453 1.8411,1.2267 2.875,1.7187 5.8231,2.8077 11.721,5.5219 17.625,8.1563 0.1452,0.065 0.2922,0.1227 0.4375,0.1874 38.749,17.942 78.893,32.73 118.16,49.5 0.2813,-0.1144 0.5624,-0.2292 0.8438,-0.3437 0.2902,0.1181 0.5847,0.2256 0.875,0.3437 39.202,-16.744 79.306,-31.502 118,-49.406 0.2068,-0.096 0.4182,-0.1854 0.625,-0.2812 5.904,-2.6344 11.77,-5.3486 17.594,-8.1563 1.0338,-0.492 1.9872,-1.0734 2.875,-1.7187 0.03,-0.022 0.064,-0.041 0.094,-0.063 2.8169,-1.1094 4.622,-3.9498 5.875,-7.25 0.037,-0.096 0.089,-0.184 0.125,-0.2812 1.1148,-2.4066 1.8251,-5.0393 2.0938,-7.7188 0.044,-0.195 0.082,-0.404 0.125,-0.5937 0,-0.28 -0.022,-0.5632 -0.031,-0.8437 0.063,-1.4181 0.04,-2.8145 -0.125,-4.2188 -0.059,-4.3402 -1.6409,-8.0849 -4.0625,-11.281 -0.5007,-0.8351 -1.0534,-1.6322 -1.6563,-2.4063 -0.6967,-0.5604 -1.3936,-1.1079 -2.125,-1.625 -2.3307,-2.0717 -4.986,-3.8701 -7.6562,-5.375 -29.466,-12.104 -59.071,-23.964 -88.781,-35.562 -14.431,-5.785 -28.919,-11.466 -43.438,-17.031 -0.1357,0.052 -0.2706,0.1045 -0.4062,0.1562 -0.1266,-0.048 -0.2485,-0.108 -0.375,-0.1562 z" />
      <path
         id="path5536"
         style="color:#000000;text-indent:0;text-transform:none;fill:url(#linearGradient7752)"
         inkscape:connector-curvature="0"
         d="m 221.4,259.8 c -0.6302,-0.01 -1.2866,0.09 -1.9063,0.3438 -2.4789,1.0163 -3.6415,3.8648 -2.625,6.3437 0.5692,1.388 1.7085,2.3302 3.0313,2.75 -3.3841,1.3124 -6.7764,2.6122 -10.156,3.9375 0.5072,-1.1556 0.5804,-2.5184 0.062,-3.7812 -0.7624,-1.8594 -2.5471,-3.0105 -4.4375,-3.0313 -0.6301,-0.01 -1.2865,0.1209 -1.9062,0.375 -2.479,1.0165 -3.6728,3.8336 -2.6563,6.3125 0.5083,1.2395 1.476,2.1437 2.625,2.625 -3.2155,1.2689 -6.4145,2.5651 -9.625,3.8438 0.421,-1.112 0.4538,-2.3797 -0.031,-3.5626 -0.7625,-1.8589 -2.5471,-2.9792 -4.4375,-3 -0.6302,-0.01 -1.2866,0.09 -1.9063,0.3438 -2.4789,1.0165 -3.6728,3.8648 -2.6562,6.3438 0.4735,1.1548 1.36,1.9965 2.4062,2.5 -0.2388,0.096 -0.48,0.1855 -0.7187,0.2812 v -0.031 c -2.8659,1.1188 -5.73,2.251 -8.5938,3.375 0.3065,-1.0329 0.2837,-2.1772 -0.1562,-3.25 -0.7625,-1.8594 -2.5471,-2.9795 -4.4375,-3 -0.6302,-0.01 -1.2553,0.1208 -1.875,0.375 -2.479,1.0163 -3.6728,3.8337 -2.6563,6.3124 0.4217,1.0285 1.1674,1.8238 2.0625,2.3438 -2.9672,1.1695 -5.9413,2.3251 -8.9062,3.5 0.2249,-0.9467 0.1796,-1.9659 -0.2188,-2.9375 -0.7624,-1.8592 -2.5471,-2.9792 -4.4375,-3 -0.6301,-0.01 -1.2553,0.09 -1.875,0.3437 -2.4789,1.0168 -3.6728,3.8649 -2.6562,6.3438 0.3812,0.9296 1.0064,1.6736 1.7812,2.1875 -2.868,1.1415 -5.7279,2.2912 -8.5937,3.4375 0.1687,-0.8913 0.1187,-1.8509 -0.25,-2.75 -0.7625,-1.8592 -2.5471,-2.9792 -4.4375,-3 -0.6302,-0.01 -1.2866,0.1209 -1.9063,0.375 -2.4789,1.0165 -3.6415,3.8336 -2.625,6.3125 0.3599,0.8777 0.9398,1.5793 1.6563,2.0937 -2.8133,1.1302 -5.6265,2.2717 -8.4375,3.4063 0.1388,-0.8496 0.07,-1.7366 -0.2813,-2.5937 -0.7624,-1.8594 -2.5471,-3.0105 -4.4375,-3.0313 -0.6301,-0.01 -1.2865,0.1209 -1.9062,0.375 -2.479,1.0165 -3.6728,3.865 -2.6563,6.3437 0.343,0.8364 0.9183,1.4965 1.5938,2 -2.785,1.1289 -5.5612,2.2732 -8.3438,3.4063 0.1184,-0.8273 0.058,-1.7045 -0.2812,-2.5313 -0.7625,-1.8589 -2.5471,-2.9792 -4.4375,-3 -0.6302,-0.01 -1.2866,0.09 -1.9063,0.3438 -2.4789,1.0165 -3.6728,3.8648 -2.6562,6.3438 0.3397,0.8283 0.8958,1.4931 1.5625,2 -2.7727,1.1337 -5.5423,2.2684 -8.3125,3.4062 0.1134,-0.8222 0.026,-1.6737 -0.3125,-2.5 -0.7625,-1.8592 -2.5471,-3.0107 -4.4375,-3.0312 -0.6302,-0.01 -1.2553,0.1208 -1.875,0.375 -2.479,1.0163 -3.6728,3.8337 -2.6563,6.3124 0.5848,1.4262 1.7781,2.382 3.1563,2.7813 -0.6956,0.5391 -1.3689,1.1075 -2.0313,1.6875 -0.057,0.049 -0.1313,0.075 -0.1875,0.125 -0.7259,0.5181 -1.443,1.0451 -2.125,1.5938 l -0.1562,0.1562 -0.1563,0.1875 c -0.5779,0.7421 -1.0977,1.5091 -1.5937,2.3125 -0.7771,-1.82 -2.5382,-2.9169 -4.4063,-2.9375 -0.6301,-0.01 -1.2553,0.09 -1.875,0.3437 -2.4789,1.0168 -3.6728,3.8649 -2.6562,6.3438 0.8934,2.1787 3.1831,3.3724 5.4062,2.9375 -0.5739,1.7741 -0.9191,3.6591 -0.9687,5.6563 h -0.031 c -0.01,0.073 0.01,0.1453 0,0.2187 -0.017,0.1575 -0.017,0.3113 -0.031,0.4687 -0.9083,-1.2299 -2.3376,-1.9521 -3.8437,-1.9687 -0.6301,-0.01 -1.2553,0.09 -1.875,0.3437 -2.4789,1.0168 -3.6728,3.8649 -2.6563,6.3438 1.0166,2.4789 3.8336,3.673 6.3125,2.6562 0.8791,-0.3604 1.5792,-0.9645 2.0938,-1.6874 0.2897,2.6085 0.9913,5.1753 2.0312,7.5624 -0.043,-0.019 -0.081,-0.044 -0.125,-0.062 -0.6197,-0.2544 -1.2448,-0.3507 -1.875,-0.3438 -1.8904,0.021 -3.6751,1.1408 -4.4375,3 -1.0165,2.4789 0.1774,5.327 2.6563,6.3438 2.4789,1.0163 5.296,-0.1774 6.3125,-2.6563 0.1192,-0.2906 0.2213,-0.5778 0.2812,-0.875 1.0461,1.4071 2.3324,2.6041 3.9688,3.375 0.061,0.029 0.095,0.098 0.1562,0.125 0.1217,0.054 0.2183,0.1381 0.3438,0.1875 0.5895,0.4128 1.2031,0.8184 1.8437,1.1875 -1.5278,0.3196 -2.8948,1.3542 -3.5312,2.9063 -1.0165,2.4787 0.1773,5.2959 2.6562,6.3124 2.479,1.0168 5.296,-0.1773 6.3125,-2.6562 0.5526,-1.3475 0.4404,-2.7962 -0.1562,-4 3.1769,1.4961 6.3648,2.9616 9.5625,4.4062 -1.024,0.5014 -1.8766,1.3609 -2.3438,2.5 -1.0165,2.4792 0.1774,5.3273 2.6563,6.3438 2.4789,1.0165 5.3272,-0.1775 6.3437,-2.6562 0.4222,-1.0297 0.4304,-2.1258 0.1563,-3.125 2.8561,1.3105 5.7252,2.5954 8.5937,3.875 -0.744,0.5127 -1.3497,1.225 -1.7187,2.125 -1.0165,2.4787 0.1773,5.3272 2.6562,6.3437 2.479,1.0165 5.3273,-0.1773 6.3438,-2.6563 0.3349,-0.8165 0.393,-1.6552 0.2812,-2.4687 2.7145,1.1843 5.4336,2.3679 8.1563,3.5313 -0.58,0.4857 -1.0675,1.0938 -1.375,1.8437 -1.0165,2.4789 0.1461,5.296 2.625,6.3125 2.4789,1.0165 5.3272,-0.1461 6.3437,-2.625 0.2922,-0.7124 0.3948,-1.4663 0.3438,-2.1875 2.6528,1.1142 5.3109,2.2118 7.9687,3.3125 -0.525,0.4703 -0.964,1.0528 -1.25,1.75 -1.0165,2.4789 0.1774,5.327 2.6563,6.3438 2.4789,1.0163 5.296,-0.1774 6.3125,-2.6563 0.2838,-0.6921 0.3844,-1.3955 0.3437,-2.0937 2.6484,1.0848 5.2869,2.1723 7.9375,3.25 -0.5106,0.471 -0.9386,1.0668 -1.2187,1.75 -1.0165,2.4787 0.1773,5.2959 2.6562,6.3124 2.479,1.0168 5.296,-0.146 6.3125,-2.625 0.2882,-0.7025 0.3861,-1.4444 0.3438,-2.1562 2.6766,1.0836 5.3551,2.1674 8.0312,3.25 -0.5488,0.4774 -1.0171,1.0611 -1.3125,1.7812 -1.0165,2.4792 0.1774,5.3273 2.6563,6.3438 2.4789,1.0165 5.3272,-0.1775 6.3437,-2.6562 0.2964,-0.7227 0.4002,-1.488 0.3438,-2.2188 2.6794,1.0868 5.355,2.1891 8.0312,3.2812 -0.5643,0.4877 -1.0423,1.1087 -1.3437,1.8438 -1.0165,2.4789 0.1773,5.296 2.6562,6.3125 2.479,1.0165 5.3273,-0.1773 6.3438,-2.6563 0.3005,-0.7326 0.4056,-1.4821 0.3437,-2.2187 2.6819,1.1048 5.3555,2.2272 8.0313,3.3437 -0.5489,0.4775 -1.0172,1.0611 -1.3125,1.7813 -1.0165,2.4789 0.1461,5.3272 2.625,6.3437 2.4789,1.0168 5.3272,-0.1773 6.3437,-2.6562 0.2839,-0.6921 0.3845,-1.4232 0.3438,-2.125 1.0608,0.4498 2.128,0.8912 3.1875,1.3438 l 0.7812,0.3124 0.7813,-0.3124 c 0.031,-0.013 0.063,-0.019 0.094,-0.031 0.027,0.011 0.068,0.021 0.094,0.031 l 0.7812,0.3124 0.7813,-0.3124 c 1.1719,-0.5006 2.3577,-0.9716 3.5312,-1.4688 -0.063,0.7417 0.012,1.5159 0.3125,2.25 1.0166,2.4789 3.8336,3.673 6.3125,2.6562 2.479,-1.0163 3.6728,-3.8648 2.6563,-6.3437 -0.3136,-0.7648 -0.8105,-1.3854 -1.4063,-1.875 2.7189,-1.1337 5.4311,-2.2848 8.1563,-3.4063 -0.092,0.7848 -0.01,1.5903 0.3125,2.375 1.0165,2.4792 3.8648,3.6728 6.3438,2.6563 2.4789,-1.0165 3.6415,-3.8336 2.625,-6.3125 -0.3197,-0.7796 -0.8259,-1.438 -1.4375,-1.9375 2.7245,-1.1108 5.4595,-2.2072 8.1875,-3.3125 -0.08,0.7702 -10e-4,1.5792 0.3125,2.3438 1.0165,2.4787 3.8648,3.6727 6.3437,2.6562 2.4789,-1.0165 3.6728,-3.8648 2.6563,-6.3438 -0.3103,-0.7565 -0.7879,-1.3874 -1.375,-1.875 2.6948,-1.089 5.3984,-2.1598 8.0937,-3.25 -0.063,0.7417 0.012,1.516 0.3125,2.25 1.0165,2.4792 3.8648,3.6418 6.3438,2.625 2.4789,-1.0163 3.6727,-3.8337 2.6562,-6.3124 -0.2953,-0.7203 -0.7636,-1.3294 -1.3125,-1.8126 2.6785,-1.0879 5.3551,-2.1858 8.0313,-3.2812 -0.053,0.7275 0.047,1.4645 0.3437,2.1875 1.0165,2.4789 3.8336,3.6728 6.3125,2.6563 2.4789,-1.0168 3.6728,-3.8649 2.6563,-6.3438 -0.2981,-0.7269 -0.7567,-1.3331 -1.3125,-1.8125 2.6939,-1.1149 5.3738,-2.246 8.0625,-3.375 -0.074,0.7607 0,1.5581 0.3125,2.3125 1.0165,2.4789 3.8335,3.6415 6.3125,2.625 2.4789,-1.0165 3.6727,-3.8336 2.6562,-6.3125 -0.3258,-0.7945 -0.8411,-1.4411 -1.4687,-1.9375 2.7479,-1.1739 5.5105,-2.3358 8.25,-3.5312 -0.132,0.8406 -0.066,1.7154 0.2812,2.5624 1.0165,2.4792 3.8648,3.6728 6.3438,2.6563 2.4789,-1.0165 3.6415,-3.865 2.625,-6.3437 -0.3752,-0.9148 -0.9892,-1.6423 -1.75,-2.1563 2.9081,-1.2975 5.7925,-2.639 8.6875,-3.9687 -0.3132,1.0328 -0.315,2.177 0.125,3.25 1.0165,2.4787 3.8648,3.6727 6.3437,2.6562 2.4789,-1.0165 3.6728,-3.8648 2.6563,-6.3438 -0.4899,-1.1945 -1.4091,-2.0737 -2.5,-2.5624 3.2805,-1.4881 6.5562,-2.989 9.8125,-4.5313 -0.6917,1.2389 -0.8627,2.7697 -0.2813,4.1875 1.0165,2.4789 3.8648,3.673 6.3438,2.6562 2.4789,-1.0163 3.6727,-3.8337 2.6562,-6.3124 -0.6671,-1.6269 -2.1316,-2.7091 -3.75,-2.9688 0.6048,-0.3538 1.1903,-0.733 1.75,-1.125 0.1119,-0.044 0.2083,-0.1028 0.3125,-0.1562 -0.023,0.01 -0.019,0.01 0.031,-0.031 0.029,-0.016 0.062,-0.016 0.125,-0.062 v -0.031 c 1.6411,-0.7637 2.9453,-1.9417 4,-3.3438 0.059,0.2746 0.1398,0.5438 0.25,0.8125 1.0165,2.4789 3.8336,3.6728 6.3125,2.6563 2.4789,-1.0168 3.6728,-3.8649 2.6563,-6.3438 -0.7624,-1.8592 -2.5471,-2.9792 -4.4375,-3 -0.6302,-0.01 -1.2553,0.09 -1.875,0.3438 -0.022,0.01 -0.041,0.022 -0.062,0.031 1.0272,-2.3697 1.7097,-4.9112 2,-7.5 0.5127,0.707 1.1977,1.3016 2.0625,1.6562 2.4789,1.0168 5.2959,-0.1773 6.3125,-2.6562 1.0165,-2.4789 -0.1774,-5.327 -2.6563,-6.3438 -0.6197,-0.2539 -1.2449,-0.3506 -1.875,-0.3437 -1.4918,0.016 -2.9028,0.7289 -3.8125,1.9375 -0.014,-0.1469 -0.015,-0.2906 -0.031,-0.4375 h 0.031 c 0,-0.075 -0.029,-0.1437 -0.031,-0.2187 -0.05,-2.0015 -0.4191,-3.8814 -1,-5.6563 2.2138,0.4187 4.4855,-0.7685 5.375,-2.9375 1.0165,-2.4789 -0.1773,-5.327 -2.6562,-6.3438 -0.6198,-0.2539 -1.2449,-0.3506 -1.875,-0.3437 -1.8682,0.021 -3.6292,1.1175 -4.4063,2.9375 -0.4919,-0.799 -0.9879,-1.5747 -1.5625,-2.3125 l -0.125,-0.1875 -0.1875,-0.1562 c -0.6577,-0.5291 -1.3404,-1.0444 -2.0625,-1.5626 -0.05,-0.044 -0.1059,-0.081 -0.1562,-0.125 -0.6523,-0.5734 -1.3442,-1.0945 -2.0313,-1.625 1.4761,-0.3499 2.7574,-1.3689 3.375,-2.875 1.0165,-2.4787 -0.1773,-5.2959 -2.6562,-6.3124 -0.6198,-0.2544 -1.2762,-0.3822 -1.9063,-0.375 -1.8904,0.02 -3.6751,1.172 -4.4375,3.0312 -0.3515,0.8572 -0.4201,1.7441 -0.2812,2.5938 l -0.125,-0.031 c -2.7665,-1.1364 -5.5436,-2.2426 -8.3125,-3.375 0.7229,-0.5146 1.327,-1.2148 1.6875,-2.0937 1.0165,-2.4792 -0.1774,-5.3273 -2.6563,-6.3438 -0.6197,-0.2541 -1.2761,-0.3505 -1.9062,-0.3438 -1.8905,0.021 -3.6751,1.1409 -4.4375,3 -0.3557,0.8675 -0.4272,1.7928 -0.2813,2.6563 -2.8131,-1.1457 -5.6221,-2.2961 -8.4375,-3.4375 0.7164,-0.5094 1.2963,-1.216 1.6563,-2.0938 1.0165,-2.4787 -0.1461,-5.3272 -2.625,-6.3437 -0.6198,-0.2541 -1.2762,-0.3819 -1.9063,-0.375 -1.8904,0.021 -3.6751,1.1719 -4.4375,3.0313 -0.3687,0.8991 -0.4187,1.8326 -0.25,2.7187 -2.8503,-1.1507 -5.7098,-2.2914 -8.5625,-3.4375 0.7657,-0.5188 1.3721,-1.2659 1.75,-2.1875 1.0165,-2.4789 -0.1773,-5.296 -2.6562,-6.3125 -0.6198,-0.2541 -1.2449,-0.3819 -1.875,-0.375 -1.8905,0.021 -3.6751,1.1408 -4.4375,3 -0.3854,0.9396 -0.4495,1.9491 -0.25,2.875 -2.9179,-1.1673 -5.8299,-2.3377 -8.75,-3.5 0.8343,-0.5152 1.537,-1.2735 1.9375,-2.25 1.0165,-2.4789 -0.1774,-5.327 -2.6563,-6.3438 -0.6197,-0.2539 -1.2449,-0.3506 -1.875,-0.3437 -1.8904,0.021 -3.6751,1.1408 -4.4375,3 -0.4169,1.0166 -0.4441,2.0796 -0.1875,3.0625 -3.0261,-1.1994 -6.0653,-2.3687 -9.0937,-3.5625 0.9616,-0.5151 1.774,-1.3217 2.2187,-2.4063 1.0165,-2.4787 -0.1773,-5.2959 -2.6562,-6.3124 -0.6198,-0.2544 -1.2762,-0.3822 -1.9063,-0.375 -1.8904,0.02 -3.6751,1.1406 -4.4375,3 -0.4632,1.1294 -0.4296,2.3316 -0.062,3.4062 -2.9897,-1.1736 -5.9768,-2.3632 -8.9687,-3.5312 v 0.031 c -0.1778,-0.071 -0.3536,-0.1475 -0.5313,-0.2188 1.1031,-0.4922 2.0384,-1.3607 2.5313,-2.5624 1.0165,-2.4792 -0.1774,-5.3273 -2.6563,-6.3438 -0.6197,-0.2541 -1.2761,-0.3505 -1.9062,-0.3438 -1.8905,0.021 -3.6751,1.1409 -4.4375,3 -0.5042,1.2296 -0.4391,2.5449 0.031,3.6876 -3.2875,-1.3106 -6.5837,-2.606 -9.875,-3.9063 1.2199,-0.4581 2.2465,-1.3835 2.7813,-2.6875 1.0165,-2.4789 -0.1461,-5.296 -2.625,-6.3125 -0.6198,-0.2541 -1.2762,-0.3819 -1.9063,-0.375 -1.8904,0.021 -3.6751,1.1719 -4.4375,3.0313 -0.5429,1.3239 -0.421,2.7464 0.1563,3.9374 -3.4512,-1.3552 -6.9184,-2.6893 -10.375,-4.0312 1.378,-0.3954 2.5686,-1.3795 3.1563,-2.8125 1.0165,-2.4789 -0.1773,-5.3272 -2.6563,-6.3437 -0.6197,-0.2544 -1.2448,-0.3507 -1.875,-0.3438 -1.8904,0.021 -3.675,1.1408 -4.4375,3 -0.6161,1.5024 -0.3955,3.1225 0.4063,4.4062 -1.5957,-0.6154 -3.1842,-1.2315 -4.7813,-1.8437 l -0.7187,-0.2813 -0.4063,0.1563 -0.375,-0.1563 -0.7187,0.2813 c -1.4798,0.5673 -2.9583,1.1487 -4.4375,1.7187 0.7399,-1.2646 0.9406,-2.8257 0.3437,-4.2812 -0.7624,-1.8592 -2.547,-2.9792 -4.4375,-3 z m 9.25,9.5938 0.375,0.125 0.375,-0.125 c 14.276,5.4765 28.526,11.03 42.719,16.719 v 0.031 c 29.625,11.565 59.149,23.37 88.531,35.437 0.013,0.01 0.019,0.026 0.031,0.031 2.558,1.4444 5.0953,3.1508 7.2813,5.0937 l 0.094,0.063 0.094,0.062 c 0.6237,0.4411 1.2158,0.9346 1.8438,1.4376 0.4929,0.6475 0.9649,1.3159 1.375,2 l 0.031,0.094 0.094,0.094 c 2.2207,2.9312 3.6035,6.2237 3.6562,10.094 v 0.094 0.094 c 0.1497,1.2734 0.1849,2.5686 0.125,3.9063 v 0.094 0.062 c 0.01,0.2093 0.025,0.3661 0.031,0.5312 -0.031,0.1511 -0.072,0.3105 -0.094,0.4063 l -0.031,0.125 v 0.125 c -0.2468,2.4608 -0.8891,4.8667 -1.9062,7.0625 l -0.062,0.062 v 0.094 c -0.024,0.046 -0.071,0.1081 -0.125,0.25 -1.1619,3.0604 -2.745,5.3042 -4.75,6.0938 l -0.25,0.094 -0.1875,0.1562 c 0.1051,-0.077 0.068,-0.054 -0.094,0.062 -0.7991,0.5808 -1.65,1.0969 -2.5625,1.5313 -5.8041,2.7983 -11.644,5.5292 -17.531,8.1562 h -0.031 c -0.1654,0.077 -0.3761,0.1658 -0.625,0.2812 -38.351,17.746 -78.192,32.423 -117.22,49.063 -0.019,-0.01 -0.044,-0.024 -0.062,-0.031 l -0.75,-0.3125 -0.7813,0.3125 c -0.022,0.01 -0.041,0.023 -0.062,0.031 -39.077,-16.66 -78.946,-31.377 -117.34,-49.156 -0.1999,-0.089 -0.349,-0.1479 -0.4375,-0.1875 -5.8899,-2.6281 -11.792,-5.3591 -17.594,-8.1562 -0.9126,-0.4345 -1.7634,-0.9505 -2.5625,-1.5313 l -0.2187,-0.1563 -0.2188,-0.094 c -0.017,-0.01 -0.013,0.01 -0.031,0 -0.043,-0.02 -0.012,-0.043 -0.062,-0.062 h -0.031 c -1.995,-0.797 -3.5609,-3.0441 -4.7187,-6.0938 l -0.031,-0.062 -0.031,-0.094 c -9e-4,0 -0.016,-0.083 -0.094,-0.25 -1.0171,-2.1958 -1.6907,-4.6017 -1.9375,-7.0625 v -0.125 l -0.031,-0.125 c -0.015,-0.066 -0.044,-0.1872 -0.062,-0.2813 0.01,-0.1882 0.023,-0.3935 0.031,-0.6562 v -0.062 -0.094 c -0.06,-1.3377 -0.056,-2.6329 0.094,-3.9063 l 0.031,-0.094 v -0.094 c 0.053,-3.8701 1.4355,-7.1626 3.6562,-10.094 l 0.062,-0.094 0.031,-0.094 c 0.4101,-0.684 0.882,-1.3525 1.375,-2 0.6363,-0.508 1.2517,-1.0075 1.9063,-1.4688 l 0.094,-0.062 0.094,-0.062 c 2.187,-1.9375 4.677,-3.6594 7.2187,-5.0938 h 0.031 c 29.382,-12.068 58.906,-23.872 88.531,-35.437 v -0.031 c 14.183,-5.6856 28.451,-11.246 42.719,-16.719 z" />
      <path
         id="path6989"
         d="m 117.2,280.8 c -10.122,0 -18.344,8.2219 -18.344,18.344 0,10.1221 8.2219,18.312 18.344,18.312 10.1221,0 18.312,-8.1905 18.312,-18.312 0,-10.1215 -8.1905,-18.344 -18.312,-18.344 z m 39,0 c -10.122,0 -18.344,8.2219 -18.344,18.344 0,10.1221 8.2219,18.312 18.344,18.312 10.1221,0 18.312,-8.1905 18.312,-18.312 0,-10.1215 -8.1905,-18.344 -18.312,-18.344 z m 39,0 c -10.122,0 -18.344,8.2219 -18.344,18.344 0,10.1221 8.2219,18.312 18.344,18.312 10.1221,0 18.312,-8.1905 18.312,-18.312 0,-10.1215 -8.1905,-18.344 -18.312,-18.344 z m 39,0 c -10.122,0 -18.344,8.2219 -18.344,18.344 0,10.1221 8.2219,18.312 18.344,18.312 10.1221,0 18.312,-8.1905 18.312,-18.312 0,-10.1215 -8.1905,-18.344 -18.312,-18.344 z m 39,0 c -10.122,0 -18.344,8.2219 -18.344,18.344 1e-4,10.122 8.2219,18.312 18.344,18.312 10.1221,0 18.312,-8.1905 18.312,-18.312 0,-10.1215 -8.1905,-18.344 -18.312,-18.344 z m 39,0 c -10.122,0 -18.344,8.2219 -18.344,18.344 1e-4,10.122 8.2219,18.312 18.344,18.312 10.1221,0 18.312,-8.1905 18.312,-18.312 0,-10.1215 -8.1905,-18.344 -18.312,-18.344 z m 39,0 c -10.122,0 -18.344,8.2219 -18.344,18.344 1e-4,10.122 8.2219,18.312 18.344,18.312 10.1221,0 18.312,-8.1905 18.312,-18.312 0,-10.1215 -8.1905,-18.344 -18.312,-18.344 z"
         style="color:#000000;opacity:0.3;fill:#000000;filter:url(#filter7018)"
         inkscape:connector-curvature="0" />
      <path
         id="path5711"
         style="color:#000000;fill:url(#radialGradient7739);stroke:#000000;stroke-width:2"
         inkscape:connector-curvature="0"
         d="m 135.6,295.1 c 0,10.122 -8.2055,18.328 -18.328,18.328 -10.1225,0 -18.327,-8.2055 -18.327,-18.328 0,-10.1225 8.2055,-18.327 18.327,-18.327 10.1215,0 18.328,8.2054 18.328,18.327 z" />
      <path
         id="path5713"
         style="color:#000000;fill:url(#radialGradient7736);stroke:#000000;stroke-width:2"
         inkscape:connector-curvature="0"
         d="m 174.6,295.1 c 0,10.122 -8.2055,18.328 -18.328,18.328 -10.1225,0 -18.327,-8.2055 -18.327,-18.328 0,-10.1225 8.2055,-18.327 18.327,-18.327 10.1215,0 18.328,8.2054 18.328,18.327 z" />
      <path
         id="path5715"
         style="color:#000000;fill:url(#radialGradient7733);stroke:#000000;stroke-width:2"
         inkscape:connector-curvature="0"
         d="m 213.6,295.1 c 0,10.122 -8.2055,18.328 -18.328,18.328 -10.1225,0 -18.327,-8.2055 -18.327,-18.328 0,-10.1225 8.2055,-18.327 18.327,-18.327 10.1215,0 18.328,8.2054 18.328,18.327 z" />
      <path
         id="path5717"
         style="color:#000000;fill:url(#radialGradient7730);stroke:#000000;stroke-width:2"
         inkscape:connector-curvature="0"
         d="m 252.6,295.1 c 0,10.122 -8.2055,18.328 -18.328,18.328 -10.1225,0 -18.327,-8.2055 -18.327,-18.328 0,-10.1225 8.2055,-18.327 18.327,-18.327 10.1215,0 18.328,8.2054 18.328,18.327 z" />
      <path
         id="path5719"
         style="color:#000000;fill:url(#radialGradient7727);stroke:#000000;stroke-width:2"
         inkscape:connector-curvature="0"
         d="m 291.6,295.1 c 0,10.122 -8.2055,18.328 -18.328,18.328 -10.1225,0 -18.327,-8.2055 -18.327,-18.328 0,-10.1225 8.2055,-18.327 18.327,-18.327 10.1215,0 18.328,8.2054 18.328,18.327 z" />
      <path
         id="path5721"
         style="color:#000000;fill:url(#radialGradient7724);stroke:#000000;stroke-width:2"
         inkscape:connector-curvature="0"
         d="m 330.6,295.1 c 0,10.122 -8.2055,18.328 -18.328,18.328 -10.1225,0 -18.327,-8.2055 -18.327,-18.328 0,-10.1225 8.2055,-18.327 18.327,-18.327 10.1215,0 18.328,8.2054 18.328,18.327 z" />
      <path
         id="path5723"
         style="color:#000000;fill:url(#radialGradient7721);stroke:#000000;stroke-width:2"
         inkscape:connector-curvature="0"
         d="m 369.6,295.1 c 0,10.122 -8.2055,18.328 -18.328,18.328 -10.1225,0 -18.327,-8.2055 -18.327,-18.328 0,-10.1225 8.2055,-18.327 18.327,-18.327 10.1215,0 18.328,8.2054 18.328,18.327 z" />
      <path
         id="path5864"
         style="fill:#0274bb"
         inkscape:connector-curvature="0"
         d="m 196.1,383.8 h 2.3155 l 5.6354,10.639 V 383.8 h 1.6686 v 12.717 h -2.3155 l -5.6355,-10.639 v 10.639 H 196.1 V 383.8" />
      <path
         id="path5866"
         style="fill:#0274bb"
         inkscape:connector-curvature="0"
         d="m 209.1,383.8 h 8.0361 v 1.448 h -6.3165 v 3.765 h 6.0526 v 1.448 h -6.0526 v 4.6083 h 6.4697 v 1.4481 H 209.1 v -12.717" />
      <path
         id="path5868"
         style="fill:#0274bb"
         inkscape:connector-curvature="0"
         d="m 223.4,396.5 -4.8523,-12.717 h 1.7962 l 4.0266,10.707 4.0351,-10.707 h 1.7877 L 225.3495,396.5 H 223.4" />
      <path
         id="path5870"
         style="fill:#0274bb"
         inkscape:connector-curvature="0"
         d="m 235.2,385.5 -2.3326,6.3289 h 4.6736 L 235.2,385.5 m -0.9705,-1.695 h 1.9494 l 4.8438,12.717 h -1.7877 l -1.1577,-3.2624 h -5.7291 l -1.1578,3.2624 h -1.8132 l 4.8523,-12.717" />
      <path
         id="path5872"
         style="fill:#0274bb"
         inkscape:connector-curvature="0"
         d="m 244.6,385.2 v 9.8894 h 2.0771 c 1.7536,0 3.0362,-0.3974 3.8478,-1.1924 0.8172,-0.7951 1.2258,-2.0501 1.2258,-3.765 0,-1.7036 -0.4086,-2.9501 -1.2258,-3.7394 -0.8116,-0.7951 -2.0942,-1.1926 -3.8478,-1.1926 H 244.6 m -1.7196,-1.4139 h 3.5328 c 2.463,0 4.2706,0.5139 5.4227,1.5417 1.152,1.0222 1.7281,2.6236 1.7281,4.8042 0,2.192 -0.5789,3.8019 -1.7366,4.8297 -1.1578,1.0278 -2.9625,1.5418 -5.4142,1.5418 h -3.5328 v -12.717" />
      <path
         id="path5874"
         style="fill:#0274bb"
         inkscape:connector-curvature="0"
         d="m 260.2,385.5 -2.3325,6.3289 h 4.6735 L 260.2,385.5 m -0.9704,-1.695 h 1.9494 l 4.8438,12.717 h -1.7877 l -1.1577,-3.2624 h -5.7292 l -1.1577,3.2624 h -1.8132 l 4.8523,-12.717" />
      <path
         id="path5814"
         style="color:#000000;fill:#8c051b"
         inkscape:connector-curvature="0"
         d="m 157,186.5 -2.7172,41.446 -26.537,-16.478 22.331,18.467 -39.092,2.7074 41.446,2.7376 -16.478,26.516 18.467,-22.31 2.7077,39.071 2.7373,-41.425 26.517,16.457 -22.29,-18.446 39.051,-2.7287 -41.446,-2.7171 16.478,-26.537 -18.446,22.29 -2.7287,-39.051 z" />
      <text
         xml:space="preserve"
         style="font-size:26.6667px;font-family:Sans;-inkscape-font-specification:'Sans, Normal';fill:#d40000;fill-opacity:1;stroke-width:1.333"
         x="138.71706"
         y="363.80219"
         id="text7"><tspan
           sodipodi:role="line"
           id="tspan7"
           x="138.71706"
           y="363.80219"
           style="font-style:normal;font-variant:normal;font-weight:bold;font-stretch:normal;font-size:42.6667px;font-family:Sans;-inkscape-font-specification:'Sans, Bold';font-variant-ligatures:normal;font-variant-caps:normal;font-variant-numeric:normal;font-variant-east-asian:normal;fill:#d40000;fill-opacity:1">SERVICES</tspan></text>
      <text
         xml:space="preserve"
         style="font-style:normal;font-variant:normal;font-weight:bold;font-stretch:normal;font-size:26.6667px;font-family:Sans;-inkscape-font-specification:'Sans, Bold';font-variant-ligatures:normal;font-variant-caps:normal;font-variant-numeric:normal;font-variant-east-asian:normal;fill:#d40000;fill-opacity:1;stroke-width:1.33299"
         x="109.74433"
         y="303.97162"
         id="text7-7"><tspan
           sodipodi:role="line"
           id="tspan7-5"
           x="109.74433"
           y="303.97162"
           style="font-style:normal;font-variant:normal;font-weight:bold;font-stretch:normal;font-size:26.6667px;font-family:Sans;-inkscape-font-specification:'Sans, Bold';font-variant-ligatures:normal;font-variant-caps:normal;font-variant-numeric:normal;font-variant-east-asian:normal;fill:#d40000;fill-opacity:1;stroke-width:1.33299">S</tspan></text>
      <path
         style="fill:none;fill-opacity:1;stroke:#d40000;stroke-width:3.61014;stroke-dasharray:none;stroke-opacity:1;stroke-linecap:round"
         d="m 141.28594,371.74235 c 189.27789,0 188.6955,0 188.6955,0"
         id="path7" />
      <text
         xml:space="preserve"
         style="font-size:26.6667px;font-family:Sans;-inkscape-font-specification:'Sans, Normal';fill:#d40000;fill-opacity:1;stroke-width:1.333"
         x="151.93866"
         y="303.70502"
         id="text7-7-9"><tspan
           sodipodi:role="line"
           id="tspan7-5-4"
           x="151.93866"
           y="303.70502"
           style="font-style:normal;font-variant:normal;font-weight:bold;font-stretch:normal;font-size:26.6667px;font-family:Sans;-inkscape-font-specification:'Sans, Bold';font-variant-ligatures:normal;font-variant-caps:normal;font-variant-numeric:normal;font-variant-east-asian:normal;fill:#d40000;fill-opacity:1">I</tspan></text>
      <text
         xml:space="preserve"
         style="font-size:26.6667px;font-family:Sans;-inkscape-font-specification:'Sans, Normal';fill:#d40000;fill-opacity:1;stroke-width:1.333"
         x="184.72499"
         y="303.70502"
         id="text7-7-2"><tspan
           sodipodi:role="line"
           id="tspan7-5-5"
           x="184.72499"
           y="303.70502"
           style="font-style:normal;font-variant:normal;font-weight:bold;font-stretch:normal;font-size:26.6667px;font-family:Sans;-inkscape-font-specification:'Sans, Bold';font-variant-ligatures:normal;font-variant-caps:normal;font-variant-numeric:normal;font-variant-east-asian:normal;fill:#d40000;fill-opacity:1">N</tspan></text>
      <text
         xml:space="preserve"
         style="font-size:26.6667px;font-family:Sans;-inkscape-font-specification:'Sans, Normal';fill:#d40000;fill-opacity:1;stroke-width:1.333"
         x="225.27589"
         y="303.97168"
         id="text7-7-7"><tspan
           sodipodi:role="line"
           id="tspan7-5-7"
           x="225.27589"
           y="303.97168"
           style="font-style:normal;font-variant:normal;font-weight:bold;font-stretch:normal;font-size:26.6667px;font-family:Sans;-inkscape-font-specification:'Sans, Bold';font-variant-ligatures:normal;font-variant-caps:normal;font-variant-numeric:normal;font-variant-east-asian:normal;fill:#d40000;fill-opacity:1">C</tspan></text>
      <text
         xml:space="preserve"
         style="font-size:26.6667px;font-family:Sans;-inkscape-font-specification:'Sans, Normal';fill:#d40000;fill-opacity:1;stroke-width:1.333"
         x="268.68466"
         y="303.70502"
         id="text7-7-3"><tspan
           sodipodi:role="line"
           id="tspan7-5-6"
           x="268.68466"
           y="303.70502"
           style="font-style:normal;font-variant:normal;font-weight:bold;font-stretch:normal;font-size:26.6667px;font-family:Sans;-inkscape-font-specification:'Sans, Bold';font-variant-ligatures:normal;font-variant-caps:normal;font-variant-numeric:normal;font-variant-east-asian:normal;fill:#d40000;fill-opacity:1">I</tspan></text>
      <text
         xml:space="preserve"
         style="font-size:26.6667px;font-family:Sans;-inkscape-font-specification:'Sans, Normal';fill:#d40000;fill-opacity:1;stroke-width:1.333"
         x="304.75568"
         y="303.70502"
         id="text7-7-8"><tspan
           sodipodi:role="line"
           id="tspan7-5-1"
           x="304.75568"
           y="303.70502"
           style="font-style:normal;font-variant:normal;font-weight:bold;font-stretch:normal;font-size:26.6667px;font-family:Sans;-inkscape-font-specification:'Sans, Bold';font-variant-ligatures:normal;font-variant-caps:normal;font-variant-numeric:normal;font-variant-east-asian:normal;fill:#d40000;fill-opacity:1">T</tspan></text>
      <text
         xml:space="preserve"
         style="font-size:26.6667px;font-family:Sans;-inkscape-font-specification:'Sans, Normal';fill:#d40000;fill-opacity:1;stroke-width:1.333"
         x="342.95401"
         y="303.70502"
         id="text7-7-94"><tspan
           sodipodi:role="line"
           id="tspan7-5-46"
           x="342.95401"
           y="303.70502"
           style="font-style:normal;font-variant:normal;font-weight:bold;font-stretch:normal;font-size:26.6667px;font-family:Sans;-inkscape-font-specification:'Sans, Bold';font-variant-ligatures:normal;font-variant-caps:normal;font-variant-numeric:normal;font-variant-east-asian:normal;fill:#d40000;fill-opacity:1">Y</tspan></text>
    </g>
    <text
       xml:space="preserve"
       transform="translate(49.04,163.43)"
       id="text8"
       style="fill:none;stroke-width:3.233;-inkscape-font-specification:'Sans, Bold';font-family:Sans;font-size:26.6667px;font-weight:bold;font-style:normal;font-stretch:normal;font-variant:normal;font-variant-ligatures:normal;font-variant-caps:normal;font-variant-numeric:normal;font-variant-east-asian:normal;fill-opacity:1;stroke:#d40000;stroke-opacity:1;stroke-dasharray:none;stroke-linecap:round;white-space:pre;shape-inside:url(#rect8)" />
  </g>
  <metadata
     id="metadata1">
    <rdf:RDF>
      <cc:Work>
        <dc:format>image/svg+xml</dc:format>
        <dc:type
           rdf:resource="http://purl.org/dc/dcmitype/StillImage" />
        <cc:license
           rdf:resource="http://creativecommons.org/licenses/publicdomain/" />
        <dc:publisher>
          <cc:Agent
             rdf:about="http://openclipart.org/">
            <dc:title>Openclipart</dc:title>
          </cc:Agent>
        </dc:publisher>
        <dc:title>Las Vegas</dc:title>
        <dc:date>2012-08-14T09:00:53</dc:date>
        <dc:description />
        <dc:source>https://openclipart.org/detail/171714/las-vegas-by-gnokii-171714</dc:source>
        <dc:creator>
          <cc:Agent>
            <dc:title>gnokii</dc:title>
          </cc:Agent>
        </dc:creator>
        <dc:subject>
          <rdf:Bag>
            <rdf:li>USA</rdf:li>
            <rdf:li>america</rdf:li>
            <rdf:li>casino</rdf:li>
            <rdf:li>gambling</rdf:li>
            <rdf:li>games</rdf:li>
            <rdf:li>landmark</rdf:li>
            <rdf:li>las vegas</rdf:li>
            <rdf:li>nevada</rdf:li>
            <rdf:li>sign</rdf:li>
          </rdf:Bag>
        </dc:subject>
      </cc:Work>
      <cc:License
         rdf:about="http://creativecommons.org/licenses/publicdomain/">
        <cc:permits
           rdf:resource="http://creativecommons.org/ns#Reproduction" />
        <cc:permits
           rdf:resource="http://creativecommons.org/ns#Distribution" />
        <cc:permits
           rdf:resource="http://creativecommons.org/ns#DerivativeWorks" />
      </cc:License>
    </rdf:RDF>
  </metadata>
</svg>
